<?xml version="1.0" encoding="UTF-8" standalone="no"?>
<!DOCTYPE svg PUBLIC "-//W3C//DTD SVG 1.1//EN"
 "http://www.w3.org/Graphics/SVG/1.1/DTD/svg11.dtd">
<!-- Generated by graphviz version 15.1.0 (20260618.0150)
 -->
<!-- Title: CausalGraph Pages: 1 -->
<svg width="444pt" height="343pt"
 viewBox="0.00 0.00 444.00 343.00" xmlns="http://www.w3.org/2000/svg" xmlns:xlink="http://www.w3.org/1999/xlink">
<g id="graph0" class="graph" transform="scale(1 1) rotate(0) translate(4 338.8)">
<title>CausalGraph</title>
<polygon fill="white" stroke="none" points="-4,4 -4,-338.8 440.25,-338.8 440.25,4 -4,4"/>
<!-- beaa7f4e_b959_4a61_96a6_ee98c4cd7d52 -->
<g id="node1" class="node">
<title>beaa7f4e_b959_4a61_96a6_ee98c4cd7d52</title>
<ellipse fill="#e0e0e0" stroke="black" cx="230.16" cy="-171.83" rx="101.71" ry="18"/>
<text xml:space="preserve" text-anchor="middle" x="230.16" y="-167.16" font-family="Helvetica,sans-Serif" font-size="14.00">Website Downtime</text>
</g>
<!-- 6fa27e86_aded_41eb_96a5_a41cb037ad2d -->
<g id="node2" class="node">
<title>6fa27e86_aded_41eb_96a5_a41cb037ad2d</title>
<path fill="none" stroke="black" d="M409.14,-254.83C409.14,-254.83 215.54,-254.83 215.54,-254.83 209.54,-254.83 198.49,-251.59 193.44,-248.34 193.44,-248.34 157.65,-225.32 157.65,-225.32 152.61,-222.08 153.56,-218.83 159.56,-218.83 159.56,-218.83 353.16,-218.83 353.16,-218.83 359.16,-218.83 370.21,-222.08 375.26,-225.32 375.26,-225.32 411.05,-248.34 411.05,-248.34 416.1,-251.59 415.14,-254.83 409.14,-254.83"/>
<text xml:space="preserve" text-anchor="middle" x="284.35" y="-232.16" font-family="Helvetica,sans-Serif" font-size="14.00">Application Code</text>
</g>
<!-- 6fa27e86_aded_41eb_96a5_a41cb037ad2d&#45;&gt;beaa7f4e_b959_4a61_96a6_ee98c4cd7d52 -->
<g id="edge3" class="edge">
<title>6fa27e86_aded_41eb_96a5_a41cb037ad2d&#45;&gt;beaa7f4e_b959_4a61_96a6_ee98c4cd7d52</title>
<path fill="none" stroke="black" d="M268.97,-218.38C263.89,-212.29 258.13,-205.38 252.64,-198.79"/>
<polygon fill="black" stroke="black" points="255.45,-196.71 246.36,-191.27 250.08,-201.19 255.45,-196.71"/>
<text xml:space="preserve" text-anchor="middle" x="282.18" y="-199.09" font-family="Helvetica,sans-Serif" font-size="10.00">Causes()</text>
</g>
<!-- 3a810e79_9e7d_4899_bd1a_19ef7e32fe75 -->
<g id="node3" class="node">
<title>3a810e79_9e7d_4899_bd1a_19ef7e32fe75</title>
<path fill="none" stroke="black" d="M118.08,-161.64C118.08,-161.64 39.83,-161.64 39.83,-161.64 33.83,-161.64 27.83,-155.64 27.83,-149.64 27.83,-149.64 27.83,-137.64 27.83,-137.64 27.83,-131.64 33.83,-125.64 39.83,-125.64 39.83,-125.64 118.08,-125.64 118.08,-125.64 124.08,-125.64 130.08,-131.64 130.08,-137.64 130.08,-137.64 130.08,-149.64 130.08,-149.64 130.08,-155.64 124.08,-161.64 118.08,-161.64"/>
<text xml:space="preserve" text-anchor="middle" x="78.95" y="-138.96" font-family="Helvetica,sans-Serif" font-size="14.00">DDoS Attack</text>
</g>
<!-- 78f91896_8d31_4830_9419_2209114f18a0 -->
<g id="node10" class="node">
<title>78f91896_8d31_4830_9419_2209114f18a0</title>
<path fill="none" stroke="black" d="M210.61,-204.26C210.61,-204.26 113.94,-204.26 113.94,-204.26 107.94,-204.26 98.02,-199.72 94.11,-195.18 94.11,-195.18 78.74,-177.35 78.74,-177.35 74.82,-172.81 76.9,-168.26 82.9,-168.26 82.9,-168.26 179.57,-168.26 179.57,-168.26 185.57,-168.26 195.48,-172.81 199.4,-177.35 199.4,-177.35 214.77,-195.18 214.77,-195.18 218.69,-199.72 216.61,-204.26 210.61,-204.26"/>
<text xml:space="preserve" text-anchor="middle" x="146.75" y="-181.59" font-family="Helvetica,sans-Serif" font-size="14.00">Network</text>
</g>
<!-- 3a810e79_9e7d_4899_bd1a_19ef7e32fe75&#45;&gt;78f91896_8d31_4830_9419_2209114f18a0 -->
<g id="edge6" class="edge">
<title>3a810e79_9e7d_4899_bd1a_19ef7e32fe75&#45;&gt;78f91896_8d31_4830_9419_2209114f18a0</title>
<path fill="none" stroke="black" d="M108.1,-161.96C108.2,-162.02 108.3,-162.09 108.4,-162.15"/>
<polygon fill="black" stroke="black" points="106.02,-164.79 116.35,-167.15 109.75,-158.86 106.02,-164.79"/>
<text xml:space="preserve" text-anchor="middle" x="63.62" y="-165.3" font-family="Helvetica,sans-Serif" font-size="10.00">DecomposesInto()</text>
</g>
<!-- f097e0cd_a00a_4dcd_9195_fd07fed4e5a4 -->
<g id="node4" class="node">
<title>f097e0cd_a00a_4dcd_9195_fd07fed4e5a4</title>
<path fill="none" stroke="black" d="M349.3,-334.8C349.3,-334.8 214.8,-334.8 214.8,-334.8 208.8,-334.8 202.8,-328.8 202.8,-322.8 202.8,-322.8 202.8,-310.8 202.8,-310.8 202.8,-304.8 208.8,-298.8 214.8,-298.8 214.8,-298.8 349.3,-298.8 349.3,-298.8 355.3,-298.8 361.3,-304.8 361.3,-310.8 361.3,-310.8 361.3,-322.8 361.3,-322.8 361.3,-328.8 355.3,-334.8 349.3,-334.8"/>
<text xml:space="preserve" text-anchor="middle" x="282.05" y="-312.13" font-family="Helvetica,sans-Serif" font-size="14.00">Memory Leak (OOM)</text>
</g>
<!-- f097e0cd_a00a_4dcd_9195_fd07fed4e5a4&#45;&gt;6fa27e86_aded_41eb_96a5_a41cb037ad2d -->
<g id="edge8" class="edge">
<title>f097e0cd_a00a_4dcd_9195_fd07fed4e5a4&#45;&gt;6fa27e86_aded_41eb_96a5_a41cb037ad2d</title>
<path fill="none" stroke="black" d="M282.57,-298.66C282.85,-289.21 283.18,-277.43 283.49,-266.69"/>
<polygon fill="black" stroke="black" points="286.99,-266.79 283.78,-256.7 279.99,-266.59 286.99,-266.79"/>
<text xml:space="preserve" text-anchor="middle" x="238.41" y="-285.92" font-family="Helvetica,sans-Serif" font-size="10.00">DecomposesInto()</text>
</g>
<!-- e835e793_0b8a_43f8_a847_a8eda475ac38 -->
<g id="node5" class="node">
<title>e835e793_0b8a_43f8_a847_a8eda475ac38</title>
<path fill="none" stroke="black" d="M424.25,-267.19C424.25,-267.19 302.5,-267.19 302.5,-267.19 296.5,-267.19 290.5,-261.19 290.5,-255.19 290.5,-255.19 290.5,-243.19 290.5,-243.19 290.5,-237.19 296.5,-231.19 302.5,-231.19 302.5,-231.19 424.25,-231.19 424.25,-231.19 430.25,-231.19 436.25,-237.19 436.25,-243.19 436.25,-243.19 436.25,-255.19 436.25,-255.19 436.25,-261.19 430.25,-267.19 424.25,-267.19"/>
<text xml:space="preserve" text-anchor="middle" x="363.38" y="-244.51" font-family="Helvetica,sans-Serif" font-size="14.00">Faulty Deployment</text>
</g>
<!-- e835e793_0b8a_43f8_a847_a8eda475ac38&#45;&gt;6fa27e86_aded_41eb_96a5_a41cb037ad2d -->
<g id="edge9" class="edge">
<title>e835e793_0b8a_43f8_a847_a8eda475ac38&#45;&gt;6fa27e86_aded_41eb_96a5_a41cb037ad2d</title>
<path fill="none" stroke="black" d="M290.03,-237.72C289.98,-237.71 289.92,-237.7 289.87,-237.69"/>
<polygon fill="black" stroke="black" points="301.62,-235.99 291.2,-237.9 300.54,-242.91 301.62,-235.99"/>
<text xml:space="preserve" text-anchor="middle" x="245.33" y="-240.96" font-family="Helvetica,sans-Serif" font-size="10.00">DecomposesInto()</text>
</g>
<!-- bbdfda8f_cb2b_4f11_a01f_3d662574d098 -->
<g id="node6" class="node">
<title>bbdfda8f_cb2b_4f11_a01f_3d662574d098</title>
<path fill="none" stroke="black" d="M179.5,-265.8C179.5,-265.8 12,-265.8 12,-265.8 6,-265.8 0,-259.8 0,-253.8 0,-253.8 0,-241.8 0,-241.8 0,-235.8 6,-229.8 12,-229.8 12,-229.8 179.5,-229.8 179.5,-229.8 185.5,-229.8 191.5,-235.8 191.5,-241.8 191.5,-241.8 191.5,-253.8 191.5,-253.8 191.5,-259.8 185.5,-265.8 179.5,-265.8"/>
<text xml:space="preserve" text-anchor="middle" x="95.75" y="-243.13" font-family="Helvetica,sans-Serif" font-size="14.00">TLS Certificate Expiration</text>
</g>
<!-- bbdfda8f_cb2b_4f11_a01f_3d662574d098&#45;&gt;78f91896_8d31_4830_9419_2209114f18a0 -->
<g id="edge7" class="edge">
<title>bbdfda8f_cb2b_4f11_a01f_3d662574d098&#45;&gt;78f91896_8d31_4830_9419_2209114f18a0</title>
<path fill="none" stroke="black" d="M111.05,-229.34C115.19,-224.35 119.75,-218.84 124.2,-213.48"/>
<polygon fill="black" stroke="black" points="126.81,-215.81 130.5,-205.88 121.42,-211.34 126.81,-215.81"/>
<text xml:space="preserve" text-anchor="middle" x="73" y="-211.91" font-family="Helvetica,sans-Serif" font-size="10.00">DecomposesInto()</text>
</g>
<!-- cb27710f_9e9c_45e0_a654_90ee9b4c8f05 -->
<g id="node7" class="node">
<title>cb27710f_9e9c_45e0_a654_90ee9b4c8f05</title>
<path fill="none" stroke="black" d="M254.91,-36C254.91,-36 204.41,-36 204.41,-36 198.41,-36 192.41,-30 192.41,-24 192.41,-24 192.41,-12 192.41,-12 192.41,-6 198.41,0 204.41,0 204.41,0 254.91,0 254.91,0 260.91,0 266.91,-6 266.91,-12 266.91,-12 266.91,-24 266.91,-24 266.91,-30 260.91,-36 254.91,-36"/>
<text xml:space="preserve" text-anchor="middle" x="229.66" y="-13.32" font-family="Helvetica,sans-Serif" font-size="14.00">Disk Full</text>
</g>
<!-- 5f0df27a_a034_4e00_b486_3f876b5d8ccd -->
<g id="node8" class="node">
<title>5f0df27a_a034_4e00_b486_3f876b5d8ccd</title>
<path fill="none" stroke="black" d="M330.91,-110.38C330.91,-110.38 221.98,-110.38 221.98,-110.38 215.98,-110.38 205.84,-106.03 201.71,-101.68 201.71,-101.68 184.04,-83.08 184.04,-83.08 179.91,-78.73 181.78,-74.38 187.78,-74.38 187.78,-74.38 296.71,-74.38 296.71,-74.38 302.71,-74.38 312.85,-78.73 316.98,-83.08 316.98,-83.08 334.65,-101.68 334.65,-101.68 338.78,-106.03 336.91,-110.38 330.91,-110.38"/>
<text xml:space="preserve" text-anchor="middle" x="259.34" y="-87.7" font-family="Helvetica,sans-Serif" font-size="14.00">Database</text>
</g>
<!-- cb27710f_9e9c_45e0_a654_90ee9b4c8f05&#45;&gt;5f0df27a_a034_4e00_b486_3f876b5d8ccd -->
<g id="edge5" class="edge">
<title>cb27710f_9e9c_45e0_a654_90ee9b4c8f05&#45;&gt;5f0df27a_a034_4e00_b486_3f876b5d8ccd</title>
<path fill="none" stroke="black" d="M237,-36.39C240.24,-44.52 244.14,-54.28 247.77,-63.36"/>
<polygon fill="black" stroke="black" points="244.47,-64.55 251.43,-72.54 250.97,-61.95 244.47,-64.55"/>
<text xml:space="preserve" text-anchor="middle" x="197.76" y="-53.13" font-family="Helvetica,sans-Serif" font-size="10.00">DecomposesInto()</text>
</g>
<!-- 5f0df27a_a034_4e00_b486_3f876b5d8ccd&#45;&gt;beaa7f4e_b959_4a61_96a6_ee98c4cd7d52 -->
<g id="edge1" class="edge">
<title>5f0df27a_a034_4e00_b486_3f876b5d8ccd&#45;&gt;beaa7f4e_b959_4a61_96a6_ee98c4cd7d52</title>
<path fill="none" stroke="black" d="M252.58,-110.81C249.08,-120.33 244.72,-132.18 240.79,-142.89"/>
<polygon fill="black" stroke="black" points="237.58,-141.49 237.41,-152.08 244.15,-143.9 237.58,-141.49"/>
<text xml:space="preserve" text-anchor="middle" x="225.31" y="-130.1" font-family="Helvetica,sans-Serif" font-size="10.00">Causes()</text>
</g>
<!-- 86d49bf8_f46e_42b5_902e_5ed33aa945bb -->
<g id="node9" class="node">
<title>86d49bf8_f46e_42b5_902e_5ed33aa945bb</title>
<path fill="none" stroke="black" d="M404.6,-71.35C404.6,-71.35 253.6,-71.35 253.6,-71.35 247.6,-71.35 241.6,-65.35 241.6,-59.35 241.6,-59.35 241.6,-47.35 241.6,-47.35 241.6,-41.35 247.6,-35.35 253.6,-35.35 253.6,-35.35 404.6,-35.35 404.6,-35.35 410.6,-35.35 416.6,-41.35 416.6,-47.35 416.6,-47.35 416.6,-59.35 416.6,-59.35 416.6,-65.35 410.6,-71.35 404.6,-71.35"/>
<text xml:space="preserve" text-anchor="middle" x="329.1" y="-48.68" font-family="Helvetica,sans-Serif" font-size="14.00">CPU Saturation (Locks)</text>
</g>
<!-- 86d49bf8_f46e_42b5_902e_5ed33aa945bb&#45;&gt;5f0df27a_a034_4e00_b486_3f876b5d8ccd -->
<g id="edge4" class="edge">
<title>86d49bf8_f46e_42b5_902e_5ed33aa945bb&#45;&gt;5f0df27a_a034_4e00_b486_3f876b5d8ccd</title>
<path fill="none" stroke="black" d="M296.27,-71.72C296.18,-71.77 296.09,-71.82 296,-71.87"/>
<polygon fill="black" stroke="black" points="300.36,-65.42 293.34,-73.36 303.78,-71.53 300.36,-65.42"/>
<text xml:space="preserve" text-anchor="middle" x="340.76" y="-75.05" font-family="Helvetica,sans-Serif" font-size="10.00">DecomposesInto()</text>
</g>
<!-- 78f91896_8d31_4830_9419_2209114f18a0&#45;&gt;beaa7f4e_b959_4a61_96a6_ee98c4cd7d52 -->
<g id="edge2" class="edge">
<title>78f91896_8d31_4830_9419_2209114f18a0&#45;&gt;beaa7f4e_b959_4a61_96a6_ee98c4cd7d52</title>
<path fill="none" stroke="black" d="M199.58,-177.12C199.64,-177.11 199.7,-177.1 199.77,-177.09"/>
<polygon fill="black" stroke="black" points="189.22,-182.47 198.47,-177.31 188.02,-175.57 189.22,-182.47"/>
<text xml:space="preserve" text-anchor="middle" x="221.05" y="-180.36" font-family="Helvetica,sans-Serif" font-size="10.00">Causes()</text>
</g>
</g>
</svg>
