<?xml version="1.0" encoding="UTF-8" standalone="no"?>
<!DOCTYPE svg PUBLIC "-//W3C//DTD SVG 1.1//EN"
 "http://www.w3.org/Graphics/SVG/1.1/DTD/svg11.dtd">
<!-- Generated by graphviz version 15.1.0 (20260618.0150)
 -->
<!-- Title: CausalGraph Pages: 1 -->
<svg width="443pt" height="361pt"
 viewBox="0.00 0.00 443.00 361.00" xmlns="http://www.w3.org/2000/svg" xmlns:xlink="http://www.w3.org/1999/xlink">
<g id="graph0" class="graph" transform="scale(1 1) rotate(0) translate(4 356.71)">
<title>CausalGraph</title>
<polygon fill="white" stroke="none" points="-4,4 -4,-356.71 439.21,-356.71 439.21,4 -4,4"/>
<!-- b6023848_ce56_4406_b595_557e6e4651b9 -->
<g id="node1" class="node">
<title>b6023848_ce56_4406_b595_557e6e4651b9</title>
<path fill="none" stroke="black" d="M391.1,-249.49C391.1,-249.49 264.99,-249.49 264.99,-249.49 258.99,-249.49 248.6,-245.4 244.21,-241.31 244.21,-241.31 223.15,-221.67 223.15,-221.67 218.76,-217.58 220.37,-213.49 226.37,-213.49 226.37,-213.49 352.49,-213.49 352.49,-213.49 358.49,-213.49 368.87,-217.58 373.26,-221.67 373.26,-221.67 394.33,-241.31 394.33,-241.31 398.71,-245.4 397.1,-249.49 391.1,-249.49"/>
<text xml:space="preserve" text-anchor="middle" x="308.74" y="-226.82" font-family="Helvetica,sans-Serif" font-size="14.00">Equipment</text>
</g>
<!-- 30b5d166_8030_4829_a88d_0fe9b4dc1ece -->
<g id="node13" class="node">
<title>30b5d166_8030_4829_a88d_0fe9b4dc1ece</title>
<ellipse fill="#e0e0e0" stroke="black" cx="237.83" cy="-180.6" rx="116.45" ry="18"/>
<text xml:space="preserve" text-anchor="middle" x="237.83" y="-175.92" font-family="Helvetica,sans-Serif" font-size="14.00">Weighing Uncertainty</text>
</g>
<!-- b6023848_ce56_4406_b595_557e6e4651b9&#45;&gt;30b5d166_8030_4829_a88d_0fe9b4dc1ece -->
<g id="edge3" class="edge">
<title>b6023848_ce56_4406_b595_557e6e4651b9&#45;&gt;30b5d166_8030_4829_a88d_0fe9b4dc1ece</title>
<path fill="none" stroke="black" d="M283.14,-213.12C279.49,-210.5 275.7,-207.78 271.92,-205.07"/>
<polygon fill="black" stroke="black" points="274.07,-202.3 263.91,-199.32 269.99,-207.99 274.07,-202.3"/>
<text xml:space="preserve" text-anchor="middle" x="298.91" y="-199.59" font-family="Helvetica,sans-Serif" font-size="10.00">Causes()</text>
</g>
<!-- 8f533d6b_d1de_43dd_9a16_78c584133d8b -->
<g id="node2" class="node">
<title>8f533d6b_d1de_43dd_9a16_78c584133d8b</title>
<path fill="none" stroke="black" d="M406.07,-93.49C406.07,-93.49 322.57,-93.49 322.57,-93.49 316.57,-93.49 310.57,-87.49 310.57,-81.49 310.57,-81.49 310.57,-69.49 310.57,-69.49 310.57,-63.49 316.57,-57.49 322.57,-57.49 322.57,-57.49 406.07,-57.49 406.07,-57.49 412.07,-57.49 418.07,-63.49 418.07,-69.49 418.07,-69.49 418.07,-81.49 418.07,-81.49 418.07,-87.49 412.07,-93.49 406.07,-93.49"/>
<text xml:space="preserve" text-anchor="middle" x="364.32" y="-70.81" font-family="Helvetica,sans-Serif" font-size="14.00">Parallax error</text>
</g>
<!-- 0c2a0285_c27c_463f_992b_3282a38d0dcc -->
<g id="node11" class="node">
<title>0c2a0285_c27c_463f_992b_3282a38d0dcc</title>
<path fill="none" stroke="black" d="M381.47,-146.36C381.47,-146.36 261.49,-146.36 261.49,-146.36 255.49,-146.36 245.19,-142.18 240.89,-137.99 240.89,-137.99 221.06,-118.72 221.06,-118.72 216.76,-114.54 218.45,-110.36 224.45,-110.36 224.45,-110.36 344.43,-110.36 344.43,-110.36 350.43,-110.36 360.73,-114.54 365.04,-118.72 365.04,-118.72 384.86,-137.99 384.86,-137.99 389.17,-142.18 387.47,-146.36 381.47,-146.36"/>
<text xml:space="preserve" text-anchor="middle" x="302.96" y="-123.68" font-family="Helvetica,sans-Serif" font-size="14.00">Manpower</text>
</g>
<!-- 8f533d6b_d1de_43dd_9a16_78c584133d8b&#45;&gt;0c2a0285_c27c_463f_992b_3282a38d0dcc -->
<g id="edge11" class="edge">
<title>8f533d6b_d1de_43dd_9a16_78c584133d8b&#45;&gt;0c2a0285_c27c_463f_992b_3282a38d0dcc</title>
<path fill="none" stroke="black" d="M342.86,-93.98C339.54,-96.84 336.05,-99.85 332.58,-102.84"/>
<polygon fill="black" stroke="black" points="330.54,-99.98 325.25,-109.16 335.11,-105.28 330.54,-99.98"/>
<text xml:space="preserve" text-anchor="middle" x="382.35" y="-101.66" font-family="Helvetica,sans-Serif" font-size="10.00">DecomposesInto()</text>
</g>
<!-- aff7eaea_ec7a_484d_b71f_937ed1e4f96d -->
<g id="node3" class="node">
<title>aff7eaea_ec7a_484d_b71f_937ed1e4f96d</title>
<path fill="none" stroke="black" d="M216.1,-173.01C216.1,-173.01 129.25,-173.01 129.25,-173.01 123.25,-173.01 113.53,-168.31 109.8,-163.6 109.8,-163.6 96.19,-146.42 96.19,-146.42 92.46,-141.71 94.74,-137.01 100.74,-137.01 100.74,-137.01 187.59,-137.01 187.59,-137.01 193.59,-137.01 203.31,-141.71 207.04,-146.42 207.04,-146.42 220.65,-163.6 220.65,-163.6 224.38,-168.31 222.1,-173.01 216.1,-173.01"/>
<text xml:space="preserve" text-anchor="middle" x="158.42" y="-150.33" font-family="Helvetica,sans-Serif" font-size="14.00">Method</text>
</g>
<!-- aff7eaea_ec7a_484d_b71f_937ed1e4f96d&#45;&gt;30b5d166_8030_4829_a88d_0fe9b4dc1ece -->
<g id="edge5" class="edge">
<title>aff7eaea_ec7a_484d_b71f_937ed1e4f96d&#45;&gt;30b5d166_8030_4829_a88d_0fe9b4dc1ece</title>
<path fill="none" stroke="black" d="M215.71,-173.47C215.76,-173.48 215.81,-173.5 215.86,-173.52"/>
<polygon fill="black" stroke="black" points="203.97,-173.36 214.56,-173.1 206.12,-166.7 203.97,-173.36"/>
<text xml:space="preserve" text-anchor="middle" x="194.41" y="-176.74" font-family="Helvetica,sans-Serif" font-size="10.00">Causes()</text>
</g>
<!-- 75c24f07_ef82_4230_ad2e_65cb1e72115d -->
<g id="node4" class="node">
<title>75c24f07_ef82_4230_ad2e_65cb1e72115d</title>
<path fill="none" stroke="black" d="M239.54,-352.71C239.54,-352.71 137.29,-352.71 137.29,-352.71 131.29,-352.71 125.29,-346.71 125.29,-340.71 125.29,-340.71 125.29,-328.71 125.29,-328.71 125.29,-322.71 131.29,-316.71 137.29,-316.71 137.29,-316.71 239.54,-316.71 239.54,-316.71 245.54,-316.71 251.54,-322.71 251.54,-328.71 251.54,-328.71 251.54,-340.71 251.54,-340.71 251.54,-346.71 245.54,-352.71 239.54,-352.71"/>
<text xml:space="preserve" text-anchor="middle" x="188.42" y="-330.04" font-family="Helvetica,sans-Serif" font-size="14.00">Air temperature</text>
</g>
<!-- c5b878e3_4a1a_4453_8b3b_245eb6dddba7 -->
<g id="node10" class="node">
<title>c5b878e3_4a1a_4453_8b3b_245eb6dddba7</title>
<path fill="none" stroke="black" d="M284.92,-271.3C284.92,-271.3 137.94,-271.3 137.94,-271.3 131.94,-271.3 121.3,-267.5 116.66,-263.7 116.66,-263.7 91.25,-242.9 91.25,-242.9 86.6,-239.1 87.96,-235.3 93.96,-235.3 93.96,-235.3 240.93,-235.3 240.93,-235.3 246.93,-235.3 257.58,-239.1 262.22,-242.9 262.22,-242.9 287.63,-263.7 287.63,-263.7 292.27,-267.5 290.92,-271.3 284.92,-271.3"/>
<text xml:space="preserve" text-anchor="middle" x="189.44" y="-248.63" font-family="Helvetica,sans-Serif" font-size="14.00">Environment</text>
</g>
<!-- 75c24f07_ef82_4230_ad2e_65cb1e72115d&#45;&gt;c5b878e3_4a1a_4453_8b3b_245eb6dddba7 -->
<g id="edge6" class="edge">
<title>75c24f07_ef82_4230_ad2e_65cb1e72115d&#45;&gt;c5b878e3_4a1a_4453_8b3b_245eb6dddba7</title>
<path fill="none" stroke="black" d="M188.65,-316.24C188.77,-306.45 188.93,-294.2 189.06,-283.11"/>
<polygon fill="black" stroke="black" points="192.56,-283.26 189.19,-273.21 185.56,-283.17 192.56,-283.26"/>
<text xml:space="preserve" text-anchor="middle" x="144.23" y="-302.92" font-family="Helvetica,sans-Serif" font-size="10.00">DecomposesInto()</text>
</g>
<!-- 655d59c9_52ae_4c52_9a22_d8e6b990bb9e -->
<g id="node5" class="node">
<title>655d59c9_52ae_4c52_9a22_d8e6b990bb9e</title>
<path fill="none" stroke="black" d="M378.44,-325.25C378.44,-325.25 298.69,-325.25 298.69,-325.25 292.69,-325.25 286.69,-319.25 286.69,-313.25 286.69,-313.25 286.69,-301.25 286.69,-301.25 286.69,-295.25 292.69,-289.25 298.69,-289.25 298.69,-289.25 378.44,-289.25 378.44,-289.25 384.44,-289.25 390.44,-295.25 390.44,-301.25 390.44,-301.25 390.44,-313.25 390.44,-313.25 390.44,-319.25 384.44,-325.25 378.44,-325.25"/>
<text xml:space="preserve" text-anchor="middle" x="338.56" y="-302.58" font-family="Helvetica,sans-Serif" font-size="14.00">Balance drift</text>
</g>
<!-- 655d59c9_52ae_4c52_9a22_d8e6b990bb9e&#45;&gt;b6023848_ce56_4406_b595_557e6e4651b9 -->
<g id="edge8" class="edge">
<title>655d59c9_52ae_4c52_9a22_d8e6b990bb9e&#45;&gt;b6023848_ce56_4406_b595_557e6e4651b9</title>
<path fill="none" stroke="black" d="M331.34,-288.91C328,-280.41 323.94,-270.11 320.19,-260.59"/>
<polygon fill="black" stroke="black" points="323.47,-259.36 316.55,-251.33 316.95,-261.92 323.47,-259.36"/>
<text xml:space="preserve" text-anchor="middle" x="281.14" y="-278" font-family="Helvetica,sans-Serif" font-size="10.00">DecomposesInto()</text>
</g>
<!-- 61b4baf7_5833_4995_a479_50d2cc79b617 -->
<g id="node6" class="node">
<title>61b4baf7_5833_4995_a479_50d2cc79b617</title>
<path fill="none" stroke="black" d="M153.25,-144.33C153.25,-144.33 12,-144.33 12,-144.33 6,-144.33 0,-138.33 0,-132.33 0,-132.33 0,-120.33 0,-120.33 0,-114.33 6,-108.33 12,-108.33 12,-108.33 153.25,-108.33 153.25,-108.33 159.25,-108.33 165.25,-114.33 165.25,-120.33 165.25,-120.33 165.25,-132.33 165.25,-132.33 165.25,-138.33 159.25,-144.33 153.25,-144.33"/>
<text xml:space="preserve" text-anchor="middle" x="82.62" y="-121.65" font-family="Helvetica,sans-Serif" font-size="14.00">Calibration procedure</text>
</g>
<!-- 61b4baf7_5833_4995_a479_50d2cc79b617&#45;&gt;aff7eaea_ec7a_484d_b71f_937ed1e4f96d -->
<g id="edge12" class="edge">
<title>61b4baf7_5833_4995_a479_50d2cc79b617&#45;&gt;aff7eaea_ec7a_484d_b71f_937ed1e4f96d</title>
<path fill="none" stroke="black" d="M131.48,-144.82C131.54,-144.84 131.6,-144.86 131.66,-144.88"/>
<polygon fill="black" stroke="black" points="119.82,-144.14 130.41,-144.41 122.3,-137.59 119.82,-144.14"/>
<text xml:space="preserve" text-anchor="middle" x="86.95" y="-148.1" font-family="Helvetica,sans-Serif" font-size="10.00">DecomposesInto()</text>
</g>
<!-- ef7cf971_bdfc_4c96_a55b_da728befe37d -->
<g id="node7" class="node">
<title>ef7cf971_bdfc_4c96_a55b_da728befe37d</title>
<path fill="none" stroke="black" d="M284.16,-115.4C284.16,-115.4 191.18,-115.4 191.18,-115.4 185.18,-115.4 175.33,-110.79 171.48,-106.19 171.48,-106.19 156.78,-88.6 156.78,-88.6 152.93,-84 155.09,-79.4 161.09,-79.4 161.09,-79.4 254.07,-79.4 254.07,-79.4 260.07,-79.4 269.92,-84 273.77,-88.6 273.77,-88.6 288.47,-106.19 288.47,-106.19 292.31,-110.79 290.16,-115.4 284.16,-115.4"/>
<text xml:space="preserve" text-anchor="middle" x="222.62" y="-92.72" font-family="Helvetica,sans-Serif" font-size="14.00">Material</text>
</g>
<!-- ef7cf971_bdfc_4c96_a55b_da728befe37d&#45;&gt;30b5d166_8030_4829_a88d_0fe9b4dc1ece -->
<g id="edge1" class="edge">
<title>ef7cf971_bdfc_4c96_a55b_da728befe37d&#45;&gt;30b5d166_8030_4829_a88d_0fe9b4dc1ece</title>
<path fill="none" stroke="black" d="M226,-115.86C227.89,-126.2 230.29,-139.34 232.43,-151.07"/>
<polygon fill="black" stroke="black" points="228.95,-151.49 234.19,-160.69 235.84,-150.23 228.95,-151.49"/>
<text xml:space="preserve" text-anchor="middle" x="207.84" y="-123.97" font-family="Helvetica,sans-Serif" font-size="10.00">Causes()</text>
</g>
<!-- f5485b0b_3e04_4aa0_b9b7_8cb5f23ce2cb -->
<g id="node8" class="node">
<title>f5485b0b_3e04_4aa0_b9b7_8cb5f23ce2cb</title>
<path fill="none" stroke="black" d="M423.21,-248.3C423.21,-248.3 359.21,-248.3 359.21,-248.3 353.21,-248.3 347.21,-242.3 347.21,-236.3 347.21,-236.3 347.21,-224.3 347.21,-224.3 347.21,-218.3 353.21,-212.3 359.21,-212.3 359.21,-212.3 423.21,-212.3 423.21,-212.3 429.21,-212.3 435.21,-218.3 435.21,-224.3 435.21,-224.3 435.21,-236.3 435.21,-236.3 435.21,-242.3 429.21,-248.3 423.21,-248.3"/>
<text xml:space="preserve" text-anchor="middle" x="391.21" y="-225.62" font-family="Helvetica,sans-Serif" font-size="14.00">Resolution</text>
</g>
<!-- f5485b0b_3e04_4aa0_b9b7_8cb5f23ce2cb&#45;&gt;b6023848_ce56_4406_b595_557e6e4651b9 -->
<g id="edge9" class="edge">
<title>f5485b0b_3e04_4aa0_b9b7_8cb5f23ce2cb&#45;&gt;b6023848_ce56_4406_b595_557e6e4651b9</title>
<path fill="none" stroke="black" d="M347.08,-230.94C347,-230.94 346.92,-230.94 346.85,-230.94"/>
<polygon fill="black" stroke="black" points="358.08,-227.27 348.13,-230.92 358.18,-234.27 358.08,-227.27"/>
<text xml:space="preserve" text-anchor="middle" x="302.34" y="-221.44" font-family="Helvetica,sans-Serif" font-size="10.00">DecomposesInto()</text>
</g>
<!-- 506a890e_3039_4cd6_a56b_8694395a1e88 -->
<g id="node9" class="node">
<title>506a890e_3039_4cd6_a56b_8694395a1e88</title>
<path fill="none" stroke="black" d="M229.71,-36C229.71,-36 185.21,-36 185.21,-36 179.21,-36 173.21,-30 173.21,-24 173.21,-24 173.21,-12 173.21,-12 173.21,-6 179.21,0 185.21,0 185.21,0 229.71,0 229.71,0 235.71,0 241.71,-6 241.71,-12 241.71,-12 241.71,-24 241.71,-24 241.71,-30 235.71,-36 229.71,-36"/>
<text xml:space="preserve" text-anchor="middle" x="207.46" y="-13.32" font-family="Helvetica,sans-Serif" font-size="14.00">Density</text>
</g>
<!-- 506a890e_3039_4cd6_a56b_8694395a1e88&#45;&gt;ef7cf971_bdfc_4c96_a55b_da728befe37d -->
<g id="edge10" class="edge">
<title>506a890e_3039_4cd6_a56b_8694395a1e88&#45;&gt;ef7cf971_bdfc_4c96_a55b_da728befe37d</title>
<path fill="none" stroke="black" d="M210.97,-36.42C212.75,-45.73 214.96,-57.28 216.97,-67.8"/>
<polygon fill="black" stroke="black" points="213.53,-68.43 218.84,-77.6 220.4,-67.12 213.53,-68.43"/>
<text xml:space="preserve" text-anchor="middle" x="169.35" y="-55.36" font-family="Helvetica,sans-Serif" font-size="10.00">DecomposesInto()</text>
</g>
<!-- c5b878e3_4a1a_4453_8b3b_245eb6dddba7&#45;&gt;30b5d166_8030_4829_a88d_0fe9b4dc1ece -->
<g id="edge2" class="edge">
<title>c5b878e3_4a1a_4453_8b3b_245eb6dddba7&#45;&gt;30b5d166_8030_4829_a88d_0fe9b4dc1ece</title>
<path fill="none" stroke="black" d="M201.65,-234.95C206.98,-226.95 213.35,-217.38 219.25,-208.52"/>
<polygon fill="black" stroke="black" points="222.16,-210.46 224.78,-200.2 216.33,-206.58 222.16,-210.46"/>
<text xml:space="preserve" text-anchor="middle" x="189.07" y="-224.99" font-family="Helvetica,sans-Serif" font-size="10.00">Causes()</text>
</g>
<!-- 0c2a0285_c27c_463f_992b_3282a38d0dcc&#45;&gt;30b5d166_8030_4829_a88d_0fe9b4dc1ece -->
<g id="edge4" class="edge">
<title>0c2a0285_c27c_463f_992b_3282a38d0dcc&#45;&gt;30b5d166_8030_4829_a88d_0fe9b4dc1ece</title>
<path fill="none" stroke="black" d="M280.18,-146.63C276.55,-149.54 272.74,-152.6 268.96,-155.63"/>
<polygon fill="black" stroke="black" points="267.06,-152.67 261.45,-161.65 271.44,-158.13 267.06,-152.67"/>
<text xml:space="preserve" text-anchor="middle" x="295.94" y="-154.38" font-family="Helvetica,sans-Serif" font-size="10.00">Causes()</text>
</g>
<!-- 11c9cce2_c8ec_4ee5_a11a_d6ab9202c33f -->
<g id="node12" class="node">
<title>11c9cce2_c8ec_4ee5_a11a_d6ab9202c33f</title>
<path fill="none" stroke="black" d="M142.01,-299.43C142.01,-299.43 81.76,-299.43 81.76,-299.43 75.76,-299.43 69.76,-293.43 69.76,-287.43 69.76,-287.43 69.76,-275.43 69.76,-275.43 69.76,-269.43 75.76,-263.43 81.76,-263.43 81.76,-263.43 142.01,-263.43 142.01,-263.43 148.01,-263.43 154.01,-269.43 154.01,-275.43 154.01,-275.43 154.01,-287.43 154.01,-287.43 154.01,-293.43 148.01,-299.43 142.01,-299.43"/>
<text xml:space="preserve" text-anchor="middle" x="111.89" y="-276.76" font-family="Helvetica,sans-Serif" font-size="14.00">Buoyancy</text>
</g>
<!-- 11c9cce2_c8ec_4ee5_a11a_d6ab9202c33f&#45;&gt;c5b878e3_4a1a_4453_8b3b_245eb6dddba7 -->
<g id="edge7" class="edge">
<title>11c9cce2_c8ec_4ee5_a11a_d6ab9202c33f&#45;&gt;c5b878e3_4a1a_4453_8b3b_245eb6dddba7</title>
<path fill="none" stroke="black" d="M154.29,-266.05C154.36,-266.02 154.43,-266 154.5,-265.97"/>
<polygon fill="black" stroke="black" points="145.09,-273.11 153.29,-266.41 142.7,-266.53 145.09,-273.11"/>
<text xml:space="preserve" text-anchor="middle" x="199.02" y="-269.26" font-family="Helvetica,sans-Serif" font-size="10.00">DecomposesInto()</text>
</g>
</g>
</svg>
